<svg width="54" height="55" viewBox="0 0 54 55" fill="none" xmlns="http://www.w3.org/2000/svg">
<path d="M45.3423 25.3878C45.2795 25.1123 45.1523 24.8573 44.9717 24.6451C44.791 24.4331 44.5627 24.2704 44.3072 24.1718L32.38 19.5291L35.4151 3.77461C35.4838 3.40856 35.4359 3.02925 35.2787 2.69391C35.1214 2.35857 34.8635 2.0854 34.5435 1.91562C34.2235 1.74584 33.8589 1.68866 33.5049 1.75272C33.1509 1.81677 32.8265 1.99858 32.581 2.27071L9.39337 28.0519C9.20504 28.2579 9.06881 28.5091 8.99684 28.7829C8.92485 29.0568 8.91937 29.3451 8.9809 29.6217C9.04242 29.8983 9.169 30.1547 9.34936 30.3683C9.52973 30.5816 9.75823 30.7455 10.0145 30.8449L21.9457 35.4876L18.9189 51.225C18.8502 51.5909 18.898 51.9705 19.0553 52.3057C19.2125 52.641 19.4706 52.9142 19.7905 53.084C20.1105 53.2538 20.475 53.3111 20.829 53.2469C21.1831 53.183 21.5074 53.001 21.7531 52.729L44.9406 26.9477C45.1256 26.7417 45.259 26.4917 45.329 26.2197C45.399 25.9479 45.4036 25.6621 45.3423 25.3878ZM23.3099 45.9764L25.4776 34.7229C25.5551 34.3237 25.4937 33.9089 25.3041 33.5526C25.1146 33.196 24.8092 32.921 24.4424 32.7764L13.5029 28.5118L31.0219 9.03399L28.8564 20.2875C28.7789 20.6866 28.8403 21.1014 29.03 21.4578C29.2194 21.8143 29.5248 22.0894 29.8916 22.234L40.8229 26.4878L23.3099 45.9764Z" fill="#31302F"/>
</svg>
