<svg width="57" height="52" viewBox="0 0 57 52" fill="none" xmlns="http://www.w3.org/2000/svg">
<path d="M7.64378 15.7783C7.4775 15.6273 7.34555 15.4478 7.25551 15.2501C7.16548 15.0525 7.11914 14.8406 7.11914 14.6265C7.11914 14.4125 7.16548 14.2006 7.25551 14.0029C7.34555 13.8053 7.4775 13.6258 7.64378 13.4748C7.81523 13.3225 11.823 9.74951 19.5938 9.74951C23.6951 9.74951 26.7722 11.6203 29.4885 13.2717C32.0046 14.8033 34.3826 16.2495 37.4063 16.2495C39.8475 16.2827 42.2653 15.8083 44.4757 14.8622C45.3328 14.5014 46.1296 14.0315 46.8424 13.4667C47.0086 13.3164 47.2055 13.1974 47.4219 13.1165C47.6385 13.0356 47.8703 12.9944 48.1042 12.9953C48.3381 12.9961 48.5695 13.039 48.7854 13.1214C49.0012 13.2039 49.1969 13.3243 49.3618 13.4758C49.5266 13.6273 49.657 13.807 49.7456 14.0045C49.8344 14.202 49.8795 14.4135 49.8786 14.6269C49.8776 14.8403 49.8306 15.0515 49.7401 15.2483C49.6498 15.4452 49.5178 15.6239 49.3518 15.7742C49.1848 15.9265 45.177 19.4995 37.4063 19.4995C33.3049 19.4995 30.2278 17.6287 27.5113 15.9773C24.9955 14.4458 22.6174 12.9995 19.5938 12.9995C17.1524 12.9663 14.7348 13.4407 12.5244 14.3868C11.6671 14.7476 10.8703 15.2175 10.1576 15.7823C9.82315 16.0851 9.37088 16.2546 8.89975 16.2538C8.42864 16.2531 7.97704 16.0821 7.64378 15.7783ZM46.8424 24.8417C46.1296 25.4066 45.3328 25.8763 44.4757 26.2371C42.2653 27.1832 39.8475 27.6577 37.4063 27.6246C34.3826 27.6246 32.0046 26.1783 29.4885 24.6467C26.7722 22.9953 23.6951 21.1245 19.5938 21.1245C11.823 21.1245 7.81523 24.6974 7.64824 24.8497C7.31282 25.1533 7.12334 25.566 7.12144 25.997C7.11957 26.4282 7.30546 26.8422 7.63822 27.1481C7.97098 27.4541 8.42335 27.627 8.89583 27.6287C9.36829 27.6304 9.82215 27.4608 10.1576 27.1572C10.8703 26.5924 11.6671 26.1227 12.5244 25.7619C14.7348 24.8157 17.1524 24.3412 19.5938 24.3746C22.6174 24.3746 24.9955 25.8208 27.5113 27.3522C30.2278 29.0037 33.3004 30.8746 37.4063 30.8746C45.177 30.8746 49.1848 27.3015 49.3518 27.1492C49.5178 26.9989 49.6498 26.8201 49.7401 26.6234C49.8306 26.4264 49.8776 26.2154 49.8786 26.002C49.8795 25.7886 49.8344 25.5769 49.7456 25.3795C49.657 25.1819 49.5266 25.0023 49.3618 24.8508C49.1969 24.6994 49.0012 24.5789 48.7854 24.4964C48.5695 24.414 48.3381 24.3711 48.1042 24.3703C47.8703 24.3694 47.6385 24.4106 47.4219 24.4916C47.2055 24.5724 47.0086 24.6914 46.8424 24.8417ZM46.8424 36.2167C46.1296 36.7816 45.3328 37.2513 44.4757 37.6121C42.2653 38.5583 39.8475 39.0327 37.4063 38.9996C34.3826 38.9996 32.0046 37.5534 29.4885 36.0217C26.7722 34.3703 23.6951 32.4996 19.5938 32.4996C11.823 32.4996 7.81523 36.0724 7.64824 36.2248C7.31282 36.5283 7.12334 36.941 7.12144 37.372C7.11957 37.8032 7.30546 38.2172 7.63822 38.5231C7.97098 38.8291 8.42335 39.002 8.89583 39.0037C9.36829 39.0054 9.82215 38.8358 10.1576 38.5322C10.8703 37.9674 11.6671 37.4977 12.5244 37.1369C14.7348 36.1907 17.1524 35.7162 19.5938 35.7496C22.6174 35.7496 24.9955 37.1959 27.5113 38.7272C30.2278 40.3787 33.3004 42.2496 37.4063 42.2496C45.177 42.2496 49.1848 38.6765 49.3518 38.5242C49.6871 38.2207 49.8767 37.8079 49.8786 37.377C49.8805 36.9458 49.6945 36.5318 49.3618 36.2258C49.029 35.9199 48.5766 35.747 48.1042 35.7453C47.6316 35.7435 47.1777 35.9132 46.8424 36.2167Z" fill="#31302F"/>
</svg>
