<svg width="70" height="72" viewBox="0 0 70 72" fill="none" xmlns="http://www.w3.org/2000/svg">
<path d="M36.0781 10.3918C36.7315 11.6467 37.3444 12.8173 37.8057 13.6926C38.022 14.1032 38.2188 14.4747 38.3721 14.761L38.6787 15.3176L38.6836 15.3244C39.0883 15.9545 39.7368 16.3944 40.4541 16.5598V16.5608C41.0824 16.7059 41.6327 16.6085 42.2373 16.3782C42.6462 16.2224 43.1613 15.9727 43.8389 15.6233L43.0449 20.0276C42.6688 22.0797 42.331 23.9697 42.0869 25.3772C41.965 26.08 41.8659 26.6664 41.7969 27.094C41.7625 27.3069 41.7345 27.487 41.7148 27.6243C41.704 27.7 41.6729 27.9066 41.6729 28.0686C41.6725 28.8029 41.8762 29.6651 42.5449 30.2668C43.2455 30.8971 44.1376 30.9637 44.8984 30.7131L45.0488 30.6594L45.0566 30.6565C45.3304 30.547 45.6771 30.3536 45.9463 30.1399L46.0557 30.0471L46.0625 30.0412C46.1686 29.9452 46.358 29.7334 46.5049 29.5696C46.6932 29.3596 46.9482 29.0721 47.25 28.7297L49.5049 26.1496C49.9902 25.5905 50.4222 25.0958 50.7979 24.6692C50.8658 24.8984 50.9325 25.1128 50.9932 25.302C51.0535 25.4902 51.112 25.6638 51.1641 25.8059C51.1898 25.8761 51.2191 25.9515 51.249 26.0217C51.2665 26.0629 51.3257 26.2044 51.4199 26.3459V26.345C51.898 27.0636 52.7496 27.5079 53.5977 27.508C53.7615 27.508 53.9387 27.477 53.9707 27.4719C54.0586 27.4579 54.1666 27.4393 54.2861 27.4172C54.5274 27.3727 54.8495 27.3097 55.2266 27.2336C55.6049 27.1573 56.0442 27.0663 56.5215 26.966L58.0449 26.6418C58.5693 26.5283 59.0705 26.4214 59.5273 26.3235L58.9775 28.4104C58.6505 29.632 58.3486 30.7955 58.125 31.6868C58.0134 32.1316 57.9199 32.514 57.8525 32.8039C57.8138 32.9708 57.7624 33.1904 57.7324 33.3733L57.7109 33.5403V33.5432C57.6972 33.7118 57.6648 34.0811 57.7725 34.4778C57.9003 34.9486 58.17 35.2946 58.4678 35.552C58.7278 35.7767 59.0392 35.9592 59.333 36.1164C59.5328 36.2234 59.7676 36.3393 60.0352 36.47C59.9453 36.5456 59.8537 36.6257 59.7578 36.7063L54.9863 40.6985C51.8233 43.3394 50.1147 44.7686 49.1768 45.5832C48.434 46.2283 48.0128 46.6108 47.749 47.0412L47.6445 47.2297C47.5448 47.4312 47.4227 47.7036 47.3545 48.0422C47.2842 48.392 47.2879 48.7274 47.3301 49.0598C47.3999 49.6094 47.604 50.3278 47.9004 51.3176C47.549 51.2668 47.1571 51.2106 46.7256 51.1467L44.1455 50.761C42.1681 50.4628 40.4645 50.2169 39.1973 50.0452C38.5645 49.9594 38.0348 49.8909 37.6318 49.844C37.3604 49.8124 37.092 49.7842 36.8838 49.7717L36.6982 49.7649C36.0625 49.7649 35.548 50.0562 35.2158 50.3313C35.1456 50.3894 35.0779 50.4521 35.0127 50.5178C34.6099 50.1133 34.0816 49.8141 33.4219 49.7688L33.2451 49.7629C33.0323 49.7629 32.6697 49.8023 32.3105 49.845C31.9052 49.8931 31.3705 49.9633 30.7344 50.05C30.0974 50.1369 29.3533 50.2412 28.5273 50.3606L25.8291 50.759H25.8281C24.2875 50.9913 23.0302 51.1748 22.0723 51.3118C22.3668 50.3223 22.5701 49.6059 22.6396 49.0578C22.6817 48.7267 22.6859 48.3929 22.6172 48.0452C22.5669 47.791 22.4861 47.5743 22.4072 47.3967L22.3301 47.2317L22.3242 47.22L22.2207 47.0344C21.9583 46.6099 21.5415 46.2303 20.7969 45.5832C20.3283 45.176 19.6673 44.6153 18.7285 43.8264L14.9922 40.7014C13.1363 39.1519 11.4517 37.7364 10.2334 36.7043C10.1346 36.6206 10.0397 36.5386 9.94727 36.4602C10.2083 36.3303 10.4537 36.2062 10.6621 36.095C10.8261 36.0074 10.9783 35.9231 11.1025 35.8498C11.1637 35.8138 11.2293 35.7744 11.291 35.7336C11.3269 35.7099 11.453 35.6272 11.5742 35.51L11.5732 35.509C12.3611 34.7485 12.3382 33.7231 12.1963 33.0217L12.1943 33.009L12.1914 32.9963L11.7832 31.3967L10.9531 28.2532C10.7677 27.5594 10.5949 26.9023 10.4414 26.3215L11.9277 26.6389H11.9297C12.9919 26.8689 13.9921 27.079 14.749 27.2317C15.1264 27.3078 15.4484 27.3708 15.6895 27.4153C15.8089 27.4373 15.9165 27.456 16.0039 27.47C16.0344 27.4748 16.2119 27.5061 16.376 27.5061C17.2204 27.5061 18.0773 27.0642 18.5566 26.3401L18.5645 26.3284C18.6533 26.1913 18.7104 26.0546 18.7275 26.0139C18.7565 25.9451 18.7841 25.8717 18.8096 25.802C18.8611 25.6608 18.9201 25.4882 18.9805 25.3C19.0414 25.1102 19.1074 24.8946 19.1758 24.6643L20.4756 26.1545C21.3279 27.1364 22.1338 28.0573 22.7471 28.7502C23.0534 29.0963 23.3141 29.3885 23.5088 29.6037C23.5853 29.6883 23.6733 29.7852 23.7568 29.8743L23.9795 30.0969C24.3039 30.3827 24.6846 30.5859 25.0508 30.7082C25.3493 30.8079 25.7616 30.8946 26.2041 30.8391L26.3955 30.8059L26.4072 30.803C27.8198 30.4801 28.2502 29.1385 28.2979 28.2004L28.3018 28.0188C28.3016 27.8549 28.2682 27.641 28.2588 27.5774C28.239 27.4436 28.2105 27.2663 28.1758 27.0549C28.1061 26.6303 28.0063 26.0447 27.8838 25.343C27.7612 24.6407 27.6156 23.818 27.4541 22.9182L26.9297 20.0276L26.127 15.6135C26.8055 15.9666 27.2522 16.1963 27.5693 16.3342C27.7813 16.4264 28.0011 16.5084 28.2402 16.5588C28.366 16.5853 28.4806 16.5991 28.5801 16.6067L28.8301 16.6155C29.7987 16.6211 30.7264 16.209 31.291 15.3244L31.2988 15.3127C31.3826 15.1786 31.7315 14.5199 32.167 13.6936L33.8955 10.3918C34.2865 9.64076 34.6595 8.93176 34.9883 8.30687L36.0781 10.3918Z" fill="white" stroke="black" stroke-width="3"/>
</svg>
