<svg width="54" height="53" viewBox="0 0 54 53" fill="none" xmlns="http://www.w3.org/2000/svg">
<path d="M26.8333 48.5833C39.0296 48.5833 48.9167 38.6962 48.9167 26.5C48.9167 14.3037 39.0296 4.41663 26.8333 4.41663C14.637 4.41663 4.75 14.3037 4.75 26.5C4.75 38.6962 14.637 48.5833 26.8333 48.5833Z" stroke="black" stroke-width="4"/>
<path d="M20.208 37.5417C22.0859 36.1498 24.3698 35.3334 26.833 35.3334C29.2962 35.3334 31.58 36.1498 33.458 37.5417" stroke="black" stroke-width="5" stroke-linecap="round"/>
<path d="M33.4583 26.5C34.678 26.5 35.6667 25.0169 35.6667 23.1875C35.6667 21.3581 34.678 19.875 33.4583 19.875C32.2387 19.875 31.25 21.3581 31.25 23.1875C31.25 25.0169 32.2387 26.5 33.4583 26.5Z" fill="black"/>
<path d="M20.2083 26.5C21.428 26.5 22.4167 25.0169 22.4167 23.1875C22.4167 21.3581 21.428 19.875 20.2083 19.875C18.9887 19.875 18 21.3581 18 23.1875C18 25.0169 18.9887 26.5 20.2083 26.5Z" fill="black"/>
</svg>
