<svg width="65" height="60" viewBox="0 0 65 60" fill="none" xmlns="http://www.w3.org/2000/svg">
<path d="M43.333 40L51.458 20L59.5857 40C57.2411 41.6226 54.3897 42.4997 51.4594 42.4997C48.529 42.4997 45.6776 41.6226 43.333 40Z" stroke="black" stroke-width="3" stroke-linecap="round" stroke-linejoin="round"/>
<path d="M5.41699 40L13.542 20L21.6697 40C19.3251 41.6226 16.4737 42.4997 13.5433 42.4997C10.613 42.4997 7.7616 41.6226 5.41699 40Z" stroke="black" stroke-width="3" stroke-linecap="round" stroke-linejoin="round"/>
<path d="M18.958 52.5H46.0413" stroke="black" stroke-width="3" stroke-linecap="round" stroke-linejoin="round"/>
<path d="M32.5 7.5V52.5" stroke="black" stroke-width="3" stroke-linecap="round" stroke-linejoin="round"/>
<path d="M8.125 17.5H13.5417C18.9583 17.5 27.0833 15 32.5 12.5C37.9167 15 46.0417 17.5 51.4583 17.5H56.875" stroke="black" stroke-width="3" stroke-linecap="round" stroke-linejoin="round"/>
</svg>
