<svg width="61" height="67" viewBox="0 0 61 67" fill="none" xmlns="http://www.w3.org/2000/svg">
<path d="M52.3738 27.0345C49.747 16.0842 40.8163 8.43359 30.6613 8.43359C29.7613 8.43359 28.8501 8.49431 27.9576 8.61575L26.9245 12.2484C29.0732 14.4196 30.6051 17.2106 31.3513 20.3177C33.4926 29.2392 28.7338 38.4433 20.7445 40.8323C17.9657 41.6656 15.022 41.5798 12.2732 40.5852L9.9707 43.3992C13.5107 52.6724 21.622 58.6647 30.6351 58.6647H30.637C32.5926 58.6647 34.5538 58.3758 36.4607 57.8042C42.2657 56.0664 47.1182 51.9103 50.122 46.0981C53.1313 40.2879 53.9301 33.5167 52.3738 27.0345ZM46.8782 44.0064C44.3732 48.8493 40.3307 52.3144 35.4932 53.7612C33.9013 54.2386 32.2682 54.4793 30.6388 54.4793C24.4288 54.4793 18.7307 51.0644 15.2788 45.5139C17.4351 45.7254 19.6157 45.5097 21.7157 44.8795C31.702 41.8917 37.6495 30.3887 34.9738 19.2353C34.4095 16.8798 33.4851 14.6751 32.2495 12.6965C40.0401 13.4356 46.7001 19.5682 48.7532 28.1169C50.0488 33.5209 49.3813 39.1636 46.8782 44.0064Z" fill="#111918"/>
</svg>
