<svg width="29" height="26" viewBox="0 0 29 26" fill="none" xmlns="http://www.w3.org/2000/svg">
<path d="M12.5719 1.37213C13.1981 -0.410793 15.7196 -0.410799 16.3458 1.37212L18.3579 7.1005C18.6393 7.90159 19.3958 8.43769 20.2449 8.43769H26.4039C28.3789 8.43769 29.1587 10.996 27.5195 12.0976L22.8118 15.2616C22.0556 15.7698 21.7385 16.7248 22.0404 17.5843L23.9006 22.8802C24.5383 24.6958 22.4951 26.2764 20.898 25.203L15.5745 21.6252C14.8998 21.1718 14.0179 21.1718 13.3432 21.6252L8.01965 25.203C6.42255 26.2764 4.37935 24.6958 5.01707 22.8802L6.87727 17.5844C7.1792 16.7248 6.86205 15.7698 6.1059 15.2616L1.39814 12.0976C-0.241019 10.996 0.538789 8.43769 2.51375 8.43769H8.67278C9.52185 8.43769 10.2784 7.90159 10.5598 7.1005L12.5719 1.37213Z" fill="#F09C9C"/>
</svg>
