<svg width="59" height="51" viewBox="0 0 59 51" fill="none" xmlns="http://www.w3.org/2000/svg">
<path d="M23.3538 6.3747H25.8122C28.5276 6.3747 30.7288 8.27749 30.7288 10.6247V19.125C30.7288 24.993 25.2257 29.75 18.4372 29.75M13.5205 6.3747H11.0622C8.34677 6.3747 6.14551 8.27748 6.14551 10.6247V19.125C6.14551 24.993 11.6487 29.75 18.4372 29.75M18.4372 29.75V35.0625C18.4372 41.5173 24.4907 46.75 31.958 46.75C39.4254 46.75 45.4788 41.5173 45.4788 35.0625V32.9375M45.4788 32.9375C48.8731 32.9375 51.6247 30.559 51.6247 27.625C51.6247 24.691 48.8731 22.3125 45.4788 22.3125C42.0846 22.3125 39.333 24.691 39.333 27.625C39.333 30.559 42.0846 32.9375 45.4788 32.9375ZM23.3538 4.24996L23.3538 8.49955M13.5205 4.25V8.5" stroke="black" stroke-width="3" stroke-linecap="round" stroke-linejoin="round"/>
</svg>
