<svg width="56" height="52" viewBox="0 0 56 52" fill="none" xmlns="http://www.w3.org/2000/svg">
<path fill-rule="evenodd" clip-rule="evenodd" d="M28.0003 2.70837C28.9668 2.70837 29.7503 3.43592 29.7503 4.33337V8.66671C29.7503 9.56416 28.9668 10.2917 28.0003 10.2917C27.0339 10.2917 26.2503 9.56416 26.2503 8.66671V4.33337C26.2503 3.43592 27.0339 2.70837 28.0003 2.70837ZM8.56051 8.05157C9.21268 7.38922 10.3196 7.3432 11.0329 7.94878L16.2176 12.3506C16.9309 12.9561 16.9805 13.984 16.3283 14.6463C15.6761 15.3087 14.5692 15.3547 13.8559 14.7491L8.6712 10.3474C7.9579 9.74179 7.90834 8.71392 8.56051 8.05157ZM47.4403 8.05157C48.0924 8.71392 48.0427 9.74179 47.3294 10.3474L42.1448 14.7491C41.4315 15.3547 40.3245 15.3087 39.6724 14.6463C39.0202 13.984 39.0697 12.9561 39.783 12.3506L44.9679 7.94878C45.6812 7.3432 46.7879 7.38922 47.4403 8.05157ZM28.0003 16.7917C22.5235 16.7917 18.0837 20.9144 18.0837 26C18.0837 31.0856 22.5235 35.2084 28.0003 35.2084C33.4771 35.2084 37.917 31.0856 37.917 26C37.917 20.9144 33.4771 16.7917 28.0003 16.7917ZM14.5837 26C14.5837 19.1195 20.5905 13.5417 28.0003 13.5417C35.4101 13.5417 41.417 19.1195 41.417 26C41.417 32.8805 35.4101 38.4584 28.0003 38.4584C20.5905 38.4584 14.5837 32.8805 14.5837 26ZM2.91699 26C2.91699 25.1026 3.7005 24.375 4.66699 24.375H9.33366C10.3001 24.375 11.0837 25.1026 11.0837 26C11.0837 26.8975 10.3001 27.625 9.33366 27.625H4.66699C3.7005 27.625 2.91699 26.8975 2.91699 26ZM44.917 26C44.917 25.1026 45.7005 24.375 46.667 24.375H51.3337C52.3001 24.375 53.0837 25.1026 53.0837 26C53.0837 26.8975 52.3001 27.625 51.3337 27.625H46.667C45.7005 27.625 44.917 26.8975 44.917 26ZM39.7265 36.888C40.4099 36.2534 41.518 36.2534 42.2015 36.888L47.3861 41.703C48.0696 42.3376 48.0693 43.3665 47.3859 44.0011C46.7025 44.6358 45.5944 44.6355 44.9112 44.0009L39.7265 39.1859C39.0431 38.5513 39.0431 37.5226 39.7265 36.888ZM16.2746 36.8882C16.958 37.5228 16.958 38.5518 16.2746 39.1864L11.0894 44.0011C10.4059 44.6358 9.29791 44.6358 8.61448 44.0011C7.93107 43.3665 7.93107 42.3376 8.61448 41.7032L13.7997 36.8882C14.4831 36.2536 15.5911 36.2536 16.2746 36.8882ZM28.0003 41.7084C28.9668 41.7084 29.7503 42.4359 29.7503 43.3334V47.6667C29.7503 48.5641 28.9668 49.2917 28.0003 49.2917C27.0339 49.2917 26.2503 48.5641 26.2503 47.6667V43.3334C26.2503 42.4359 27.0339 41.7084 28.0003 41.7084Z" fill="black"/>
</svg>
