<svg width="50" height="45" viewBox="0 0 50 45" fill="none" xmlns="http://www.w3.org/2000/svg">
<g clip-path="url(#clip0_54_185)">
<path d="M25.0008 44.9999C16.1986 44.9999 9.04102 38.5581 9.04102 30.6364C9.04102 23.3905 21.9071 3.07534 23.3712 0.778827C24.0446 -0.259772 25.9495 -0.259772 26.6272 0.778827C28.0952 3.07534 40.9583 23.3905 40.9583 30.6364C40.96 38.5581 33.8043 44.9999 25.0008 44.9999ZM25.0008 5.06967C20.5234 12.3539 12.7922 25.9134 12.7922 30.6364C12.7922 36.6914 18.2681 41.6212 25.0008 41.6212C31.7322 41.6212 37.2081 36.6932 37.2081 30.6364C37.2078 25.9099 29.4776 12.3539 25.0008 5.06967Z" fill="black"/>
<path d="M25.0013 38.2407C23.9621 38.2407 23.123 37.4849 23.123 36.5488C23.123 35.6144 23.9637 34.8602 25.0013 34.8602C27.5884 34.8602 29.6924 32.9739 29.6924 30.6507C29.6924 29.7164 30.5321 28.9603 31.5703 28.9603C32.6124 28.9603 33.4521 29.7164 33.4521 30.6507C33.4521 34.837 29.6605 38.2407 25.0013 38.2407Z" fill="black"/>
</g>
<defs>
<clipPath id="clip0_54_185">
<rect width="50" height="45" fill="white"/>
</clipPath>
</defs>
</svg>
