<svg width="30" height="27" viewBox="0 0 30 27" fill="none" xmlns="http://www.w3.org/2000/svg">
<path d="M15.0001 7.04167C15.0001 5.67138 14.4382 4.35722 13.438 3.38828C12.4378 2.41934 11.0812 1.875 9.66675 1.875H1.66675V21.25H11.0001C12.0609 21.25 13.0784 21.6583 13.8285 22.385C14.5787 23.1117 15.0001 24.0973 15.0001 25.125M15.0001 7.04167V25.125M15.0001 7.04167C15.0001 5.67138 15.562 4.35722 16.5622 3.38828C17.5624 2.41934 18.9189 1.875 20.3334 1.875H28.3334V21.25H19.0001C17.9392 21.25 16.9218 21.6583 16.1717 22.385C15.4215 23.1117 15.0001 24.0973 15.0001 25.125" stroke="#E77A7A" stroke-width="3" stroke-linecap="round" stroke-linejoin="round"/>
</svg>
