<svg width="39" height="39" viewBox="0 0 39 39" fill="none" xmlns="http://www.w3.org/2000/svg">
<path d="M1 13.3333H38M29.7778 21.5584L9.22222 21.5556M16.074 29.7788L9.22222 29.7778M9.22222 1V5.11111M29.7778 1V5.11111M7.57778 38H31.4222C33.7246 38 34.876 38 35.7553 37.5519C36.5288 37.1578 37.1578 36.5288 37.5519 35.7553C38 34.876 38 33.7246 38 31.4222V11.6889C38 9.38644 38 8.23523 37.5519 7.35582C37.1578 6.58225 36.5288 5.95333 35.7553 5.5592C34.876 5.11111 33.7246 5.11111 31.4222 5.11111H7.57778C5.27535 5.11111 4.12412 5.11111 3.24471 5.5592C2.47114 5.95333 1.84222 6.58225 1.44809 7.35582C1 8.23523 1 9.38644 1 11.6889V31.4222C1 33.7246 1 34.876 1.44809 35.7553C1.84222 36.5288 2.47114 37.1578 3.24471 37.5519C4.12412 38 5.27533 38 7.57778 38Z" stroke="#D67D7D" stroke-width="2" stroke-linecap="round" stroke-linejoin="round"/>
</svg>
