<svg width="27" height="30" viewBox="0 0 27 30" fill="none" xmlns="http://www.w3.org/2000/svg">
<path d="M23.445 5.76252C22.8704 5.12378 22.1882 4.61708 21.4373 4.27138C20.6864 3.92568 19.8816 3.74774 19.0688 3.74774C18.256 3.74774 17.4511 3.92568 16.7002 4.27138C15.9493 4.61708 15.2671 5.12378 14.6925 5.76252L13.5 7.08752L12.3075 5.76252C11.1469 4.47291 9.57267 3.74841 7.93126 3.74841C6.28985 3.74841 4.71567 4.47291 3.55501 5.76252C2.39436 7.05214 1.74231 8.80123 1.74231 10.625C1.74231 12.4488 2.39436 14.1979 3.55501 15.4875L13.5 26.5375L23.445 15.4875C24.0199 14.8491 24.4759 14.091 24.787 13.2567C25.0982 12.4224 25.2583 11.5281 25.2583 10.625C25.2583 9.72191 25.0982 8.82765 24.787 7.99333C24.4759 7.15901 24.0199 6.40097 23.445 5.76252Z" stroke="#D67D7D" stroke-width="3" stroke-linecap="round" stroke-linejoin="round"/>
</svg>
