<svg width="43" height="43" viewBox="0 0 43 43" fill="none" xmlns="http://www.w3.org/2000/svg">
<path opacity="0.5" d="M21.5002 5.08334C25.7654 5.08334 28.8139 5.08639 31.1301 5.3978C33.2607 5.68428 34.5735 6.2099 35.5422 7.08725L35.7317 7.26791C36.7185 8.25467 37.2962 9.59731 37.6018 11.8705C37.9132 14.1867 37.9163 17.2351 37.9163 21.5003C37.9163 25.7655 37.9132 28.814 37.6018 31.1302C37.3153 33.2609 36.7898 34.5736 35.9124 35.5423L35.7317 35.7318C34.7451 36.7185 33.4031 37.2963 31.1301 37.6019C28.8139 37.9133 25.7654 37.9164 21.5002 37.9164C17.235 37.9164 14.1866 37.9133 11.8704 37.6019C9.73939 37.3154 8.42613 36.79 7.45728 35.9124L7.26782 35.7318C6.2812 34.7451 5.70332 33.4031 5.39771 31.1302C5.08629 28.814 5.08325 25.7655 5.08325 21.5003C5.08325 17.2351 5.08633 14.1867 5.39771 11.8705C5.68419 9.73958 6.20967 8.42621 7.08716 7.45737L7.26782 7.26791C8.25458 6.28115 9.59722 5.70341 11.8704 5.3978C14.1866 5.08642 17.235 5.08334 21.5002 5.08334Z" stroke="#E77A7A" stroke-width="3"/>
<path d="M12.5417 30.0104C11.7996 30.0104 11.198 30.612 11.198 31.3542C11.198 32.0963 11.7996 32.6979 12.5417 32.6979H23.2917C24.0339 32.6979 24.6355 32.0963 24.6355 31.3542C24.6355 30.612 24.0339 30.0104 23.2917 30.0104H12.5417Z" fill="#E77A7A"/>
<path d="M12.5417 23.7396C11.7996 23.7396 11.198 24.3412 11.198 25.0833C11.198 25.8255 11.7996 26.4271 12.5417 26.4271H28.6667C29.4089 26.4271 30.0105 25.8255 30.0105 25.0833C30.0105 24.3412 29.4089 23.7396 28.6667 23.7396H12.5417Z" fill="#E77A7A"/>
<path d="M39.4167 8.95834C39.4167 11.9269 37.0104 14.3333 34.0417 14.3333C31.0731 14.3333 28.6667 11.9269 28.6667 8.95834C28.6667 5.98982 31.0731 3.58334 34.0417 3.58334C37.0104 3.58334 39.4167 5.98982 39.4167 8.95834Z" fill="#E77A7A"/>
</svg>
