<svg width="43" height="43" viewBox="0 0 43 43" fill="none" xmlns="http://www.w3.org/2000/svg">
<path opacity="0.4" d="M21.7162 22.8975C21.5908 22.8796 21.4295 22.8796 21.2862 22.8975C18.1328 22.79 15.6245 20.21 15.6245 17.0387C15.6245 13.7958 18.2403 11.162 21.5012 11.162C24.7441 11.162 27.3778 13.7958 27.3778 17.0387C27.3599 20.21 24.8695 22.79 21.7162 22.8975Z" stroke="#E77A7A" stroke-width="4" stroke-linecap="round" stroke-linejoin="round"/>
<path opacity="0.34" d="M33.5755 34.7227C30.3864 37.6431 26.158 39.4168 21.4997 39.4168C16.8413 39.4168 12.613 37.6431 9.42383 34.7227C9.60299 33.0385 10.678 31.3902 12.5951 30.1002C17.5042 26.8393 25.531 26.8393 30.4043 30.1002C32.3214 31.3902 33.3964 33.0385 33.5755 34.7227Z" stroke="#E77A7A" stroke-width="4" stroke-linecap="round" stroke-linejoin="round"/>
<path d="M21.4999 39.4167C31.3949 39.4167 39.4166 31.395 39.4166 21.5C39.4166 11.6049 31.3949 3.58334 21.4999 3.58334C11.6048 3.58334 3.58325 11.6049 3.58325 21.5C3.58325 31.395 11.6048 39.4167 21.4999 39.4167Z" stroke="#E77A7A" stroke-width="4" stroke-linecap="round" stroke-linejoin="round"/>
</svg>
