<svg width="22" height="23" viewBox="0 0 22 23" fill="none" xmlns="http://www.w3.org/2000/svg">
<path d="M11 11.5C9.53337 11.5 8.27782 10.9615 7.23337 9.88438C6.18893 8.80729 5.66671 7.5125 5.66671 6C5.66671 4.4875 6.18893 3.19271 7.23337 2.11563C8.27782 1.03854 9.53337 0.5 11 0.5C12.4667 0.5 13.7223 1.03854 14.7667 2.11563C15.8112 3.19271 16.3334 4.4875 16.3334 6C16.3334 7.5125 15.8112 8.80729 14.7667 9.88438C13.7223 10.9615 12.4667 11.5 11 11.5ZM0.333374 22.5V18.65C0.333374 17.8708 0.527818 17.1547 0.916707 16.5016C1.3056 15.8484 1.82226 15.35 2.46671 15.0063C3.84448 14.2958 5.24448 13.763 6.66671 13.4078C8.08893 13.0526 9.53337 12.875 11 12.875C12.4667 12.875 13.9112 13.0526 15.3334 13.4078C16.7556 13.763 18.1556 14.2958 19.5334 15.0063C20.1778 15.35 20.6945 15.8484 21.0834 16.5016C21.4723 17.1547 21.6667 17.8708 21.6667 18.65V22.5H0.333374ZM3.00004 19.75H19V18.65C19 18.3979 18.9389 18.1687 18.8167 17.9625C18.6945 17.7562 18.5334 17.5958 18.3334 17.4813C17.1334 16.8625 15.9223 16.3984 14.7 16.0891C13.4778 15.7797 12.2445 15.625 11 15.625C9.7556 15.625 8.52226 15.7797 7.30004 16.0891C6.07782 16.3984 4.86671 16.8625 3.66671 17.4813C3.46671 17.5958 3.3056 17.7562 3.18337 17.9625C3.06115 18.1687 3.00004 18.3979 3.00004 18.65V19.75ZM11 8.75C11.7334 8.75 12.3612 8.48073 12.8834 7.94219C13.4056 7.40365 13.6667 6.75625 13.6667 6C13.6667 5.24375 13.4056 4.59635 12.8834 4.05781C12.3612 3.51927 11.7334 3.25 11 3.25C10.2667 3.25 9.63893 3.51927 9.11671 4.05781C8.59448 4.59635 8.33337 5.24375 8.33337 6C8.33337 6.75625 8.59448 7.40365 9.11671 7.94219C9.63893 8.48073 10.2667 8.75 11 8.75Z" fill="#D67D7D"/>
</svg>
